# This file uses centimeters as units for non-parametric coordinates.

mtllib startingHallway.mtl
g default
v -42.058044 -1.467113 287.507246
v 42.058044 -1.467113 287.507246
v -42.058044 0.063666 287.507246
v 42.058044 0.063666 287.507246
v -42.058044 0.063666 -7.634748
v 42.058044 0.063666 -7.634748
v -42.058044 -1.467113 -7.634748
v 42.058044 -1.467113 -7.634748
vt 0.993741 0.524600
vt 0.993746 0.591249
vt 0.012972 0.403155
vt 0.992533 0.591249
vt 0.689882 0.398356
vt 0.688514 0.205436
vt 0.010518 0.205964
vt 0.692025 0.205411
vt 0.687428 0.201165
vt 0.686060 0.008244
vt 0.993767 0.825102
vt 0.992554 0.825102
vt 0.993720 0.290746
vt 0.992507 0.290746
vt 0.992527 0.524600
vt 0.011605 0.210234
vt 0.693393 0.398331
vt 0.009151 0.013043
vn 0.000000 0.000000 1.000000
vn 0.000000 0.000000 1.000000
vn 0.000000 0.000000 1.000000
vn 0.000000 0.000000 1.000000
vn 0.000000 1.000000 0.000000
vn 0.000000 1.000000 0.000000
vn 0.000000 1.000000 0.000000
vn 0.000000 1.000000 0.000000
vn 0.000000 0.000000 -1.000000
vn 0.000000 0.000000 -1.000000
vn 0.000000 0.000000 -1.000000
vn 0.000000 0.000000 -1.000000
vn 0.000000 -1.000000 0.000000
vn 0.000000 -1.000000 0.000000
vn 0.000000 -1.000000 0.000000
vn 0.000000 -1.000000 0.000000
vn 1.000000 0.000000 0.000000
vn 1.000000 0.000000 0.000000
vn 1.000000 0.000000 0.000000
vn 1.000000 0.000000 0.000000
vn -1.000000 0.000000 0.000000
vn -1.000000 0.000000 0.000000
vn -1.000000 0.000000 0.000000
vn -1.000000 0.000000 0.000000
s off
g startingHallway_floor
usemtl initialShadingGroup
f 1/1/1 2/2/2 4/4/3 3/15/4
f 3/3/5 4/16/6 6/6/7 5/5/8
f 5/5/9 6/6/10 8/8/11 7/17/12
f 7/7/13 8/18/14 2/10/15 1/9/16
f 2/2/17 8/11/18 6/12/19 4/4/20
f 7/13/21 1/1/22 3/15/23 5/14/24
g default
v 42.018547 -1.218001 288.915821
v 46.283715 -1.218001 288.915821
v 42.018547 107.665226 288.915821
v 46.283715 107.665226 288.915821
v 42.018547 107.665226 -1.168903
v 46.283715 107.665226 -1.168903
v 42.018547 -1.218001 -1.168903
v 46.283715 -1.218001 -1.168903
v 42.018547 107.665226 284.863039
v 42.018547 -1.218001 284.862935
v 46.283715 -1.218001 284.862935
v 46.283715 107.665226 284.863039
v -45.615643 107.665226 284.863039
v -45.615643 -1.218001 284.862935
v -45.615643 -1.218001 288.915821
v -45.615643 107.665226 288.915821
v -41.075669 107.665226 284.863039
v -41.075669 107.665226 288.915821
v -41.075669 -1.218001 288.915821
v -41.075669 -1.218001 284.862935
v -41.075669 -1.217416 -1.168903
v -41.075669 107.665828 -1.168903
v -45.615643 -1.217416 -1.168903
v -45.615643 107.665828 -1.168903
v 42.018547 14.543392 288.915821
v -41.075669 14.543392 288.915821
v -45.615643 14.543392 288.915821
v -45.615643 14.543392 284.862970
v -45.615643 14.543978 -1.168903
v -41.075669 14.543978 -1.168903
v -41.075669 14.543392 284.862970
v 42.018547 14.543392 284.862970
v 42.018547 14.543392 -1.168903
v 46.283715 14.543392 -1.168903
v 46.283715 14.543392 284.862970
v 46.283715 14.543392 288.915821
v 41.399400 -1.218001 -1.168903
v 41.708971 -1.218001 284.553374
v -40.766094 -1.218001 284.553374
v -40.456518 -1.217416 -1.168903
v 41.956874 14.543392 284.801019
v 41.708971 14.295758 284.553408
v 41.399400 14.295758 -1.168903
v 41.647034 14.543392 -1.168903
v -41.014005 14.543392 284.801019
v -40.766094 14.295758 284.553408
v -40.456518 14.296343 -1.168903
v -40.704153 14.543978 -1.168903
vt 0.800239 0.264085
vt 0.801836 0.263277
vt 0.812163 0.262514
vt 0.812194 0.265390
vt 0.881874 0.259710
vt 0.881669 0.256225
vt 0.881447 0.252904
vt 0.976612 0.704235
vt 0.779263 0.043971
vt 0.778600 0.047098
vt 0.771735 0.036498
vt 0.763928 0.051108
vt 0.797248 0.262981
vt 0.800389 0.262129
vt 0.812075 0.259828
vt 0.813975 0.327806
vt 0.813988 0.330522
vt 0.802176 0.328849
vt 0.803605 0.327856
vt 0.765653 0.676130
vt 0.737842 0.709531
vt 0.801779 0.326905
vt 0.798789 0.328137
vt 0.813832 0.324761
vt 0.762258 0.704861
vt 0.884432 0.326126
vt 0.978386 0.607501
vt 0.884321 0.329844
vt 0.793769 0.544925
vt 0.009477 0.650221
vt 0.782746 0.551044
vt 0.782061 0.542333
vt 0.009048 0.412882
vt 0.765572 0.607755
vt 0.762960 0.945083
vt 0.007865 0.945607
vt 0.976636 0.985542
vt 0.737253 0.988443
vt 0.737373 0.948875
vt 0.737376 0.947982
vt 0.737813 0.689499
vt 0.782824 0.551506
vt 0.009478 0.651168
vt 0.009480 0.652061
vt 0.977156 0.944617
vt 0.008652 0.946659
vt 0.763762 0.946144
vt 0.738329 0.649065
vt 0.765576 0.611132
vt 0.864679 0.550754
vt 0.884174 0.333173
vt 0.978390 0.610878
vt 0.981406 0.610875
vt 0.981402 0.607497
vt 0.981480 0.672699
vt 0.008329 0.708103
vt 0.978468 0.675876
vt 0.848964 0.036828
vt 0.981483 0.675872
vt 0.794400 0.548590
vt 0.794249 0.548818
vt 0.779359 0.043408
vt 0.779372 0.043703
vt 0.763468 0.051205
vt 0.774601 0.036101
vt 0.778208 0.541642
vt 0.009594 0.691601
vt 0.798557 0.328234
vt 0.778673 0.541710
vt 0.794352 0.548311
vt 0.797009 0.262898
vt 0.737377 0.947035
vt 0.774478 0.036545
vt 0.767090 0.050420
vt 0.864143 0.554165
vt 0.782230 0.547734
vt 0.848246 0.033665
vt 0.763119 0.945242
vt 0.738486 0.648907
vt 0.008022 0.945764
vt 0.977314 0.944456
vt 0.763878 0.986164
vt 0.737699 0.649959
vt 0.008532 0.986226
vt 0.976519 0.945522
vt 0.738058 0.411567
vt 0.978464 0.672703
vt 0.765650 0.672957
vn 0.000000 0.000000 1.000000
vn 0.000000 0.000000 1.000000
vn 0.000000 0.000000 1.000000
vn 0.000000 0.000000 1.000000
vn 0.000000 1.000000 0.000000
vn 0.000000 1.000000 0.000000
vn 0.000000 1.000000 0.000000
vn 0.000000 1.000000 0.000000
vn -0.000000 0.000000 -1.000000
vn 0.000000 0.000000 -1.000000
vn 0.000000 0.000000 -1.000000
vn -0.000002 0.000000 -1.000000
vn 0.000000 -1.000000 0.000000
vn 0.000000 -1.000000 0.000000
vn 0.000000 -1.000000 0.000000
vn 0.000000 -1.000000 0.000000
vn 1.000000 0.000000 0.000000
vn 1.000000 0.000000 0.000000
vn 1.000000 0.000000 0.000000
vn 1.000000 0.000000 0.000000
vn -1.000000 0.000000 0.000000
vn -1.000000 0.000000 0.000000
vn -1.000000 0.000000 0.000000
vn -1.000000 0.000001 0.000000
vn 0.000000 -1.000000 0.000000
vn 0.000000 -1.000000 0.000000
vn 1.000000 0.000000 0.000000
vn 1.000000 0.000000 0.000000
vn 0.000000 1.000000 0.000000
vn 0.000000 1.000000 0.000000
vn 0.000000 -1.000000 0.000000
vn 0.000000 -1.000000 0.000000
vn -0.000000 -1.000000 -0.000002
vn 0.000000 0.000000 1.000000
vn 0.000000 0.000000 1.000000
vn 0.000000 0.000000 1.000000
vn 0.000000 0.000000 1.000000
vn 0.000000 1.000000 0.000000
vn 0.000000 1.000000 0.000000
vn 0.000000 1.000000 0.000002
vn 0.000000 1.000000 0.000000
vn 0.000000 1.000000 0.000002
vn 0.000000 1.000000 0.000000
vn 0.000000 0.000000 1.000000
vn 0.000000 0.000000 1.000000
vn 0.000000 -1.000000 0.000000
vn 0.000000 -1.000000 -0.000002
vn 0.000000 0.000000 -1.000000
vn 0.000000 0.000000 -1.000000
vn 0.000000 0.000000 -1.000000
vn 0.000000 0.000000 -1.000000
vn 0.000000 -1.000000 -0.000002
vn -0.000000 -1.000000 -0.000002
vn -1.000000 0.000000 0.000000
vn -1.000000 0.000000 0.000000
vn 0.000000 1.000000 0.000002
vn 0.000000 1.000000 0.000002
vn 0.000000 0.000000 1.000000
vn 0.000000 0.000000 1.000000
vn 0.000000 0.000000 1.000000
vn -1.000000 0.000000 0.000000
vn -1.000000 0.000000 0.000000
vn -1.000000 0.000000 0.000000
vn 0.000000 0.000000 -1.000000
vn 0.000000 0.000000 -1.000000
vn 1.000000 0.000000 0.000000
vn 1.000000 0.000000 0.000000
vn 1.000000 0.000000 0.000000
vn 1.000000 0.000000 0.000000
vn 0.000000 0.000001 -1.000000
vn 0.000000 0.000001 -1.000000
vn 0.000000 0.000001 -1.000000
vn 0.000000 0.000001 -1.000000
vn -1.000000 0.000000 0.000000
vn -1.000000 0.000000 0.000000
vn -1.000000 0.000000 0.000000
vn -1.000000 0.000000 0.000000
vn 0.000000 0.000000 -1.000000
vn 0.000000 0.000000 -1.000000
vn 1.000000 0.000000 0.000000
vn 1.000000 0.000000 0.000000
vn 1.000000 0.000000 0.000000
vn 0.000000 0.000000 1.000000
vn 0.000000 0.000000 1.000000
vn 0.000000 -1.000000 0.000000
vn 0.000000 -1.000000 0.000000
vn -0.000014 0.000000 -1.000000
vn -0.000014 0.000000 -1.000000
vn -0.000014 0.000000 -1.000000
vn -0.000001 -1.000000 -0.000002
vn -0.000001 -1.000000 -0.000002
vn 0.000000 0.000000 -1.000000
vn 0.000000 0.000000 -1.000000
vn 0.000000 0.000000 -1.000000
vn 0.000000 0.707075 -0.707139
vn 0.000000 0.707075 -0.707139
vn 0.000000 0.707075 -0.707139
vn 0.000000 0.707075 -0.707139
vn -0.707106 0.707107 0.000766
vn -0.707106 0.707107 0.000766
vn -0.707106 0.707107 0.000766
vn -0.707106 0.707107 0.000766
vn 0.707101 0.707112 0.000768
vn 0.707101 0.707112 0.000768
vn 0.707102 0.707112 0.000768
vn 0.707101 0.707112 0.000768
vn -0.999999 -0.000000 0.001083
vn -0.999999 -0.000000 0.001083
vn -0.999999 -0.000000 0.001083
vn -0.999999 -0.000000 0.001083
vn 0.000000 0.000002 -1.000000
vn 0.000000 0.000002 -1.000000
vn 0.000000 0.000002 -1.000000
vn 0.000000 0.000002 -1.000000
vn 0.999999 0.000000 0.001083
vn 0.999999 0.000000 0.001083
vn 0.999999 0.000000 0.001083
vn 0.999999 0.000000 0.001083
vn 0.000000 1.000000 -0.000000
vn 0.000000 1.000000 0.000000
vn 0.000000 1.000000 0.000000
vn 0.000000 1.000000 -0.000000
vn 0.000000 1.000000 0.000002
vn 0.000000 1.000000 0.000002
vn 0.000000 1.000000 0.000002
vn 0.000000 1.000000 0.000002
s 1
g startingHallway_wall
usemtl initialShadingGroup
f 9/19/25 10/20/26 44/21/27 33/22/28
s 2
f 11/73/29 12/77/30 20/75/31 17/105/32
s 3
f 41/27/33 42/28/34 16/29/35 15/91/36
s 4
f 18/31/37 19/32/38 10/20/39 9/19/40
s 5
f 10/20/41 19/32/42 43/33/43 44/21/44
s 6
f 35/34/45 36/35/46 22/36/47 23/37/48
s 4
f 15/30/49 16/92/50 19/32/38 18/31/37
s 5
f 42/28/51 43/33/43 19/32/42 16/92/52
s 2
f 17/105/32 20/75/31 14/38/53 13/106/54
s 4
f 18/31/37 9/19/55 27/40/56 28/41/57
s 8
f 9/19/58 33/22/59 34/42/60 27/40/61
s 9
f 11/73/62 17/105/63 25/70/64 26/71/65
f 26/71/65 25/70/64 21/45/66 24/72/67
s 8
f 27/40/61 34/42/60 35/34/68 23/37/69
s 4
f 28/41/57 27/40/56 23/37/70 22/36/71
s 10
f 37/47/72 38/88/73 29/49/74 31/94/75
s 4
f 28/41/57 22/36/71 31/50/76 29/87/77
s 6
f 22/36/47 36/35/46 37/47/78 31/50/79
s 9
f 21/45/66 25/70/64 30/67/80 32/52/81
s 8
f 34/42/60 33/22/59 11/23/82 26/44/83
f 35/34/68 34/42/60 26/44/83 24/46/84
s 6
f 21/69/85 36/35/46 35/34/45 24/46/86
f 37/47/78 36/35/46 21/69/85 32/68/87
s 10
f 30/93/88 38/88/73 37/47/72 32/68/89
s off
f 25/104/90 39/97/91 38/48/92 30/51/93
f 17/26/94 40/99/95 39/53/96 25/43/97
f 41/90/98 40/54/99 17/74/100 13/39/101
s 3
f 13/95/102 14/76/103 42/28/34 41/27/33
s 5
f 20/25/104 43/33/43 42/28/51 14/76/105
f 44/21/44 43/33/43 20/25/104 12/24/106
s 1
f 33/22/28 44/21/27 12/24/107 11/23/108
s 4
f 15/30/49 18/31/37 46/89/109 45/82/110
s 3
f 41/27/33 15/91/36 45/83/111 51/80/112 52/81/113
s 4
f 18/31/37 28/41/57 47/86/114 46/89/109
f 28/41/57 29/87/77 48/84/115 47/86/114
s 10
f 29/49/74 38/88/73 56/78/116 55/79/117 48/60/118
s off
f 49/63/119 50/103/120 54/65/121 53/96/122
f 50/64/123 49/98/124 52/58/125 51/57/126
f 53/66/127 54/101/128 55/62/129 56/61/130
f 45/56/131 46/102/132 50/64/133 51/57/134
f 54/65/135 50/103/136 46/55/137 47/100/138
f 55/62/139 54/101/140 47/59/141 48/85/142
s 11
f 40/54/143 41/90/144 52/58/145 49/98/146
f 39/53/147 40/99/143 49/63/146 53/96/148
f 38/48/149 39/97/147 53/66/148 56/61/150
g default
v -42.058044 107.126671 287.507246
v 42.058044 107.126671 287.507246
v -42.058044 108.657450 287.507246
v 42.058044 108.657450 287.507246
v -42.058044 108.657450 -7.634748
v 42.058044 108.657450 -7.634748
v -42.058044 107.126671 -7.634748
v 42.058044 107.126671 -7.634748
vt 0.993741 0.524600
vt 0.993746 0.591249
vt 0.012972 0.403155
vt 0.992533 0.591249
vt 0.689882 0.398356
vt 0.688514 0.205436
vt 0.010518 0.205964
vt 0.692025 0.205411
vt 0.687428 0.201165
vt 0.686060 0.008244
vt 0.993767 0.825102
vt 0.992554 0.825102
vt 0.993720 0.290746
vt 0.992507 0.290746
vt 0.992527 0.524600
vt 0.011605 0.210234
vt 0.693393 0.398331
vt 0.009151 0.013043
vn 0.000000 0.000000 1.000000
vn 0.000000 0.000000 1.000000
vn 0.000000 0.000000 1.000000
vn 0.000000 0.000000 1.000000
vn 0.000000 1.000000 0.000000
vn 0.000000 1.000000 0.000000
vn 0.000000 1.000000 0.000000
vn 0.000000 1.000000 0.000000
vn 0.000000 0.000000 -1.000000
vn 0.000000 0.000000 -1.000000
vn 0.000000 0.000000 -1.000000
vn 0.000000 0.000000 -1.000000
vn 0.000000 -1.000000 0.000000
vn 0.000000 -1.000000 0.000000
vn 0.000000 -1.000000 0.000000
vn 0.000000 -1.000000 0.000000
vn 1.000000 0.000000 0.000000
vn 1.000000 0.000000 0.000000
vn 1.000000 0.000000 0.000000
vn 1.000000 0.000000 0.000000
vn -1.000000 0.000000 0.000000
vn -1.000000 0.000000 0.000000
vn -1.000000 0.000000 0.000000
vn -1.000000 0.000000 0.000000
s off
g startingHallway_ceiling
usemtl initialShadingGroup
f 57/107/151 58/108/152 60/110/153 59/121/154
f 59/109/155 60/122/156 62/112/157 61/111/158
f 61/111/159 62/112/160 64/114/161 63/123/162
f 63/113/163 64/124/164 58/116/165 57/115/166
f 58/108/167 64/117/168 62/118/169 60/110/170
f 63/119/171 57/107/172 59/121/173 61/120/174
