# This file uses centimeters as units for non-parametric coordinates.

mtllib startingHallway_doorWall.mtl
g default
v -50.000000 0.000000 -0.334645
v -49.999996 50.000000 -0.334645
v -50.000000 50.000000 -3.334645
v -50.000000 0.000000 -3.334645
v -50.000000 36.728401 -3.334645
v -50.000011 36.728413 -0.334615
v 50.000000 0.000000 -0.334645
v 50.000000 50.000000 -0.334645
v 50.000000 50.000000 -3.334645
v 50.000000 0.000000 -3.334645
v -10.217301 0.000000 -0.334645
v -10.217299 50.000008 -0.334638
v -10.217301 50.000000 -3.334645
v -10.217301 0.000000 -3.334645
v 10.217300 0.000000 -0.334645
v 10.217300 50.000000 -0.334645
v 10.217300 50.000000 -3.334645
v 10.217300 0.000000 -3.334645
v -10.217301 36.728401 -3.334645
v 10.217300 36.728401 -3.334645
v 50.000000 36.728401 -3.334645
v 50.000000 36.728401 -0.334645
v 10.217300 36.728401 -0.334645
v -10.217301 36.728401 -0.334653
v -50.000000 200.000000 -0.334645
v -50.000000 200.000000 -3.334645
v -10.217301 200.000000 -3.334645
v -10.217301 200.000000 -0.334645
v 10.217300 200.000000 -0.334645
v 10.217300 200.000000 -3.334645
v 50.000000 200.000000 -0.334645
v 50.000000 200.000000 -3.334645
v -50.000000 107.099876 -0.334645
v -50.000000 107.099876 -3.334645
v -10.217300 107.099876 -3.334645
v 10.217300 107.099876 -3.334645
v 50.000000 107.099876 -3.334645
v 50.000000 107.099876 -0.334645
v 10.217300 107.099876 -0.334645
v -10.217300 107.099876 -0.334645
v -50.000000 113.192825 -0.334645
v -50.000000 113.192825 -3.334645
v -10.217300 113.192825 -3.334645
v 10.217300 113.192825 -3.334645
v 50.000000 113.192825 -3.334645
v 50.000000 113.192825 -0.334645
v 10.217300 113.192825 -0.334645
v -10.217300 113.192825 -0.334645
v -10.217300 107.099876 -3.727285
v -50.000000 107.099876 -3.727285
v 10.217300 107.099876 -3.727285
v 50.000000 107.099876 -3.727285
v -50.000000 112.996529 -3.727285
v -50.000000 113.192825 -3.530984
v -10.217300 112.996529 -3.727285
v -10.217300 113.192825 -3.530984
v 10.217300 112.996529 -3.727285
v 10.217300 113.192825 -3.530984
v 50.000000 112.996529 -3.727285
v 50.000000 113.192825 -3.530984
vt 0.003502 0.155947
vt 0.003502 0.001992
vt 0.016078 0.001992
vt 0.016078 0.155947
vt 0.003502 0.211577
vt 0.016078 0.211577
vt 0.016078 0.450923
vt 0.003502 0.450923
vt 0.016078 0.476463
vt 0.003502 0.476463
vt 0.016078 0.840333
vt 0.003502 0.840333
vt 0.002679 0.476463
vt 0.001857 0.475640
vt 0.001857 0.450923
vt 0.459648 0.155947
vt 0.447073 0.155947
vt 0.447073 0.001992
vt 0.459648 0.211577
vt 0.447073 0.211577
vt 0.459648 0.001992
vt 0.459648 0.450923
vt 0.447073 0.450923
vt 0.459648 0.476463
vt 0.447073 0.476463
vt 0.461294 0.450923
vt 0.461294 0.475640
vt 0.460471 0.476463
vt 0.459648 0.840333
vt 0.447073 0.840333
vt 0.478827 0.454643
vt 0.478827 0.608598
vt 0.466252 0.608598
vt 0.466252 0.454643
vt 0.447959 0.998008
vt 0.447959 0.844053
vt 0.460534 0.844053
vt 0.460534 0.998008
vt 0.904682 0.254405
vt 0.904682 0.421163
vt 0.892107 0.421163
vt 0.892107 0.254405
vt 0.892107 0.168749
vt 0.904682 0.168749
vt 0.892107 0.001992
vt 0.904682 0.001992
vt 0.515414 0.454643
vt 0.515414 0.621401
vt 0.502839 0.621401
vt 0.502839 0.454643
vt 0.484545 0.454643
vt 0.497120 0.454643
vt 0.497120 0.621401
vt 0.484545 0.621401
vt 0.442240 0.844053
vt 0.442240 0.929709
vt 0.429665 0.929709
vt 0.429665 0.844053
vt 0.560577 0.707057
vt 0.560577 0.873814
vt 0.558931 0.873814
vt 0.558931 0.707057
vt 0.560577 0.621401
vt 0.558931 0.621401
vt 0.560577 0.454643
vt 0.558931 0.454643
vt 0.528667 0.873814
vt 0.527844 0.873814
vt 0.527844 0.707057
vt 0.528667 0.707056
vt 0.527021 0.873814
vt 0.527021 0.707057
vt 0.527844 0.621401
vt 0.528667 0.621401
vt 0.527021 0.621401
vt 0.527844 0.454643
vt 0.528667 0.454643
vt 0.527021 0.454643
vt 0.633811 0.450923
vt 0.467054 0.450923
vt 0.467054 0.296969
vt 0.633811 0.296969
vt 0.467054 0.241338
vt 0.633811 0.241338
vt 0.467054 0.001992
vt 0.633811 0.001992
vt 0.719467 0.241338
vt 0.719467 0.296969
vt 0.719467 0.001992
vt 0.886224 0.241338
vt 0.886224 0.296969
vt 0.886224 0.001992
vt 0.886224 0.450923
vt 0.719467 0.450923
vt 0.188777 0.155947
vt 0.022019 0.155947
vt 0.022019 0.001992
vt 0.188777 0.001992
vt 0.188777 0.211577
vt 0.022019 0.211577
vt 0.188777 0.450923
vt 0.022019 0.450923
vt 0.274433 0.155947
vt 0.274433 0.211577
vt 0.188777 0.476463
vt 0.022019 0.476463
vt 0.274433 0.450923
vt 0.441190 0.155947
vt 0.441190 0.211577
vt 0.022019 0.840333
vt 0.188777 0.840333
vt 0.274433 0.476463
vt 0.441190 0.450923
vt 0.274433 0.001992
vt 0.441190 0.001992
vt 0.274433 0.840333
vt 0.441190 0.476463
vt 0.441190 0.840333
vt 0.566296 0.707057
vt 0.930166 0.707056
vt 0.930166 0.873814
vt 0.566296 0.873814
vt 0.930166 0.621401
vt 0.566296 0.621401
vt 0.930166 0.454643
vt 0.566296 0.454643
vt 0.553384 0.707056
vt 0.553384 0.873814
vt 0.553384 0.621401
vt 0.553384 0.454643
vn 0.000000 1.000000 0.000000
vn 0.000000 1.000000 0.000000
vn 0.000000 1.000000 0.000000
vn 0.000000 1.000000 0.000000
vn 0.000000 0.000000 -1.000000
vn 0.000000 0.000000 -1.000000
vn 0.000000 0.000000 -1.000000
vn 0.000000 0.000000 -1.000000
vn 0.000000 -1.000000 0.000000
vn 0.000000 -1.000000 0.000000
vn 0.000000 -1.000000 0.000000
vn 0.000000 -1.000000 0.000000
vn -1.000000 -0.000000 -0.000002
vn -1.000000 -0.000000 -0.000002
vn -1.000000 -0.000000 -0.000002
vn -1.000000 -0.000000 -0.000002
vn 0.000000 0.000000 -1.000000
vn 0.000000 0.000000 -1.000000
vn 0.000000 0.000000 -1.000000
vn 0.000000 0.000000 -1.000000
vn -1.000000 0.000000 0.000000
vn -1.000000 0.000001 -0.000001
vn -1.000000 0.000001 -0.000001
vn -1.000000 0.000000 0.000000
vn 0.000000 -0.000000 1.000000
vn 0.000000 -0.000000 1.000000
vn 0.000000 -0.000000 1.000000
vn 0.000000 -0.000000 1.000000
vn 1.000000 0.000000 0.000000
vn 1.000000 0.000000 0.000000
vn 1.000000 0.000000 0.000000
vn 1.000000 0.000000 0.000000
vn 1.000000 0.000000 0.000000
vn 1.000000 0.000000 0.000000
vn 0.000000 1.000000 0.000000
vn 0.000000 1.000000 0.000000
vn 0.000000 1.000000 0.000000
vn 0.000000 1.000000 0.000000
vn 0.000000 1.000000 0.000000
vn 0.000000 1.000000 0.000000
vn 0.000000 0.000000 1.000000
vn 0.000000 0.000000 1.000000
vn 0.000000 0.000000 1.000000
vn 0.000000 0.000000 1.000000
vn 0.000000 1.000000 0.000000
vn 0.000000 1.000000 0.000000
vn 0.000000 1.000000 0.000000
vn 0.000000 1.000000 0.000000
vn 0.000000 1.000000 0.000000
vn 0.000000 1.000000 0.000000
vn 0.000000 0.000000 -1.000000
vn 0.000000 0.000000 -1.000000
vn 0.000000 0.000000 -1.000000
vn 0.000000 0.000000 -1.000000
vn 0.000000 -1.000000 0.000000
vn 0.000000 -1.000000 0.000000
vn 0.000000 -1.000000 0.000000
vn 0.000000 -1.000000 0.000000
vn 0.000000 -1.000000 0.000000
vn 0.000000 -1.000000 0.000000
vn 0.000000 0.000000 -1.000000
vn 0.000000 0.000000 -1.000000
vn 0.000000 0.000000 -1.000000
vn 0.000000 0.000000 -1.000000
vn 0.000000 0.000000 -1.000000
vn 0.000000 0.000000 -1.000000
vn 1.000000 0.000000 0.000000
vn 1.000000 0.000000 0.000000
vn 1.000000 0.000000 0.000000
vn 1.000000 0.000000 0.000000
vn 0.000000 0.000000 1.000000
vn 0.000000 0.000000 1.000000
vn 0.000000 -0.000000 1.000000
vn 0.000000 0.000000 1.000000
vn 0.000000 -0.000001 1.000000
vn 0.000000 0.000000 1.000000
vn 0.000000 -0.000001 1.000000
vn 1.000000 0.000000 0.000000
vn 1.000000 0.000000 0.000000
vn 1.000000 0.000000 0.000000
vn 1.000000 0.000000 0.000000
vn 1.000000 0.000000 0.000000
vn 1.000000 0.000000 0.000000
vn 0.000000 -1.000000 0.000000
vn 0.000000 -1.000000 0.000000
vn 0.000000 -1.000000 0.000000
vn 0.000000 -1.000000 0.000000
vn 0.000000 -1.000000 0.000000
vn 0.000000 -1.000000 0.000000
vn -1.000000 0.000000 0.000000
vn -1.000000 0.000000 0.000000
vn -1.000000 0.000000 0.000000
vn -1.000000 0.000000 0.000000
vn -1.000000 0.000000 0.000000
vn -1.000000 0.000000 0.000000
vn -1.000000 0.000000 0.000001
vn -1.000000 0.000000 0.000001
vn 0.000000 0.000000 -1.000000
vn 0.000000 0.000000 -1.000000
vn 0.000000 0.000000 -1.000000
vn 0.000000 0.000000 1.000000
vn -0.000000 0.000000 1.000000
vn 1.000000 0.000000 0.000000
vn 1.000000 0.000000 0.000000
vn 0.000000 0.000000 -1.000000
vn 0.000000 0.000000 1.000000
vn -1.000000 0.000000 0.000000
vn -1.000000 0.000000 0.000000
vn 1.000000 0.000000 0.000000
vn 1.000000 0.000000 0.000000
vn 0.000000 0.000000 1.000000
vn 0.000000 0.000000 1.000000
vn 0.000000 0.000000 1.000000
vn 0.000000 0.000000 1.000000
vn -0.000000 0.000000 1.000000
vn -1.000000 0.000000 0.000000
vn -1.000000 0.000000 0.000000
vn 0.000000 0.000000 -1.000000
vn 0.000000 0.000000 -1.000000
vn 0.000000 0.000000 -1.000000
vn 0.000000 0.000000 -1.000000
vn 0.000000 0.000000 -1.000000
vn 0.000000 0.000000 -1.000000
vn 0.000000 0.000000 -1.000000
vn 0.000000 0.000000 -1.000000
vn 1.000000 0.000000 0.000000
vn 1.000000 0.000000 0.000000
vn 0.000000 0.000000 1.000000
vn 0.000000 0.000000 1.000000
vn 0.000000 0.000000 1.000000
vn 0.000000 0.000000 1.000000
vn 0.000000 -1.000000 0.000000
vn 0.000000 -1.000000 0.000000
vn 0.000000 -1.000000 0.000000
vn 0.000000 -1.000000 0.000000
vn -1.000000 0.000000 0.000000
vn -1.000000 0.000000 0.000000
vn -1.000000 0.000000 0.000000
vn 0.000000 -1.000000 0.000000
vn 0.000000 -1.000000 0.000000
vn 0.000000 -1.000000 0.000000
vn 0.000000 -1.000000 0.000000
vn 1.000000 0.000000 0.000000
vn 1.000000 0.000000 0.000000
vn 1.000000 0.000000 0.000000
vn 0.000000 0.707120 -0.707094
vn 0.000000 0.707120 -0.707094
vn 0.000000 0.707118 -0.707096
vn 0.000000 0.707118 -0.707096
vn 0.000000 0.707118 -0.707096
vn 0.000000 0.707118 -0.707096
vn 0.000000 0.707120 -0.707094
vn 0.000000 0.707120 -0.707094
vn 0.000000 0.000000 -1.000000
vn 0.000000 0.000000 -1.000000
vn 0.000000 0.000000 -1.000000
vn 0.000000 0.000000 -1.000000
vn 0.000000 0.000000 -1.000000
vn 0.000000 0.000000 -1.000000
vn 0.000000 0.000000 -1.000000
vn 0.000000 0.000000 -1.000000
vn 0.000000 1.000000 0.000000
vn 0.000000 1.000000 0.000000
vn 0.000000 1.000000 0.000000
vn 0.000000 1.000000 0.000000
vn 0.000000 1.000000 0.000000
vn 0.000000 1.000000 0.000000
vn 0.000000 1.000000 0.000000
vn 0.000000 1.000000 0.000000
vn -0.000000 0.000000 1.000000
s off
g doorWall5
usemtl lambert2SG
f 27/39/1 26/40/2 25/41/3 28/42/4
f 14/79/5 4/80/6 5/81/7 19/82/8
f 11/47/9 1/48/10 4/49/11 14/50/12
f 5/1/13 4/2/14 1/3/15 6/4/16
s 1
f 19/82/17 5/81/18 3/83/19 13/84/20
s 2
f 3/5/21 5/1/22 6/4/23 2/6/24
s 3
f 24/95/25 6/96/26 1/97/27 11/98/28
s off
f 21/16/29 22/17/30 7/18/31
f 7/18/32 10/21/33 21/16/34
f 29/43/35 30/44/36 27/39/37
f 27/39/38 28/42/39 29/43/40
f 15/114/41 7/115/42 22/108/43 23/103/44
f 31/45/45 32/46/46 30/44/47
f 30/44/48 29/43/49 31/45/50
f 21/91/51 10/93/52 18/94/53 20/88/54
f 10/51/55 7/52/56 15/53/57
f 15/53/58 18/54/59 10/51/60
s 1
f 13/84/20 17/87/61 20/88/62 19/82/63
f 17/87/61 9/90/64 21/91/65 20/88/66
s 6
f 9/19/67 8/20/68 22/17/69 21/16/70
s 3
f 22/108/71 8/109/72 16/104/73 23/103/74
f 23/103/75 16/104/73 12/99/76 24/95/77
s off
f 14/31/78 19/32/79 24/33/80
f 24/33/81 11/34/82 14/31/83
f 23/55/84 24/56/85 19/57/86
f 19/57/87 20/58/88 23/55/89
f 20/35/90 18/36/91 15/37/92
f 15/37/93 23/38/94 20/35/95
s 2
f 3/5/21 2/6/24 33/7/96 34/8/97
s 1
f 34/85/98 35/86/99 13/84/20 3/83/19
f 17/87/61 13/84/20 35/86/99 36/89/100
s 3
f 12/99/76 16/104/73 39/107/101 40/101/102
s 6
f 8/20/68 9/19/67 37/22/103 38/23/104
s 1
f 9/90/64 17/87/61 36/89/100 37/92/105
s 3
f 16/104/73 8/109/72 38/113/106 39/107/101
s 2
f 34/8/97 33/7/96 41/9/107 42/10/108
s 6
f 38/23/104 37/22/103 45/24/109 46/25/110
s 3
f 39/107/101 38/113/106 46/117/111 47/112/112
f 40/101/102 39/107/101 47/112/112 48/105/113
f 48/105/113 41/106/114 33/102/115 40/101/102
s 2
f 42/10/108 41/9/107 25/11/116 26/12/117
s 9
f 27/119/118 43/120/119 42/121/120 26/122/121
f 44/123/122 43/120/119 27/119/118 30/124/123
f 45/125/124 44/123/122 30/124/123 32/126/125
s 6
f 46/25/110 45/24/109 32/29/126 31/30/127
s 3
f 47/112/112 46/117/111 31/118/128 29/116/129
f 48/105/113 47/112/112 29/116/129 28/111/130
f 25/110/131 41/106/114 48/105/113 28/111/130
s 10
f 35/59/132 34/60/133 50/61/134 49/62/135
s 2
f 34/8/97 42/10/108 54/13/136 53/14/137 50/15/138
s 10
f 36/63/139 35/59/132 49/62/135 51/64/140
f 37/65/141 36/63/139 51/64/140 52/66/142
s 6
f 45/24/109 37/22/103 52/26/143 59/27/144 60/28/145
s 11
f 53/67/146 54/68/147 56/69/148 55/70/149
f 55/70/149 56/69/148 58/73/150 57/74/151
f 57/74/151 58/73/150 60/76/152 59/77/153
s 12
f 53/67/154 55/70/155 49/127/156 50/128/157
f 51/129/158 49/127/156 55/70/155 57/74/159
f 52/130/160 51/129/158 57/74/159 59/77/161
s 13
f 42/71/162 43/72/163 56/69/164 54/68/165
f 43/72/163 44/75/166 58/73/167 56/69/164
f 44/75/166 45/78/168 60/76/169 58/73/167
s 3
f 40/101/102 33/102/115 2/100/170 12/99/76
f 12/99/76 2/100/170 6/96/26 24/95/25
